<svg xmlns="http://www.w3.org/2000/svg" width="115.002" height="43.992" viewBox="186 35 115.002 43.992"><path d="M244.641 35.331h2.945l10.284 17.924V35.331h3.242v25.113h-2.82L247.866 42.3v18.144h-3.226V35.33Zm52.169 19.133 2.415 2.182a17.535 17.535 0 0 1-3.39 2.476 12.239 12.239 0 0 1-5.975 1.588c-3.523 0-6.525-1.25-9.007-3.75a12.396 12.396 0 0 1-3.725-8.99 15.158 15.158 0 0 1 0-.083 12.431 12.431 0 0 1 3.667-9.013 15 15 0 0 1 .058-.059 12.186 12.186 0 0 1 8.832-3.765 14.717 14.717 0 0 1 .175-.001 12.356 12.356 0 0 1 6.37 1.814 17.938 17.938 0 0 1 2.995 2.25l-2.415 2.214a13.48 13.48 0 0 0-2.487-1.788 9.169 9.169 0 0 0-4.463-1.194c-2.609 0-4.84.931-6.694 2.794a9.203 9.203 0 0 0-2.78 6.625 11.178 11.178 0 0 0-.001.123 9.226 9.226 0 0 0 2.695 6.678 11.03 11.03 0 0 0 .086.088 9.097 9.097 0 0 0 6.572 2.792 10.886 10.886 0 0 0 .122 0 9.178 9.178 0 0 0 4.49-1.208 13.51 13.51 0 0 0 2.46-1.773ZM228.984 73.73H186v-1.348h42.984v1.348Zm9.76-25.958a12.421 12.421 0 0 0-3.74-9.004 14.915 14.915 0 0 0-.117-.117 12.231 12.231 0 0 0-8.904-3.65 14.722 14.722 0 0 0-.165 0 12.236 12.236 0 0 0-8.858 3.767 14.954 14.954 0 0 0-.058.059 12.422 12.422 0 0 0-3.682 9.028c0 3.547 1.247 6.576 3.74 9.088a14.94 14.94 0 0 0 .117.117 12.236 12.236 0 0 0 8.906 3.65 14.715 14.715 0 0 0 .164-.001 12.237 12.237 0 0 0 8.858-3.766 15.015 15.015 0 0 0 .058-.059 12.426 12.426 0 0 0 3.682-9.029 15.078 15.078 0 0 0 0-.083ZM186 60.443V35.332h3.225V57.18h8.914v3.265H186Zm39.983-22.161a9.114 9.114 0 0 0-6.637 2.715 11.059 11.059 0 0 0-.087.086 9.249 9.249 0 0 0-2.781 6.65 11.257 11.257 0 0 0 0 .123 9.268 9.268 0 0 0 2.745 6.737 11.161 11.161 0 0 0 .043.044 9.112 9.112 0 0 0 6.594 2.808 10.905 10.905 0 0 0 .123 0 9.103 9.103 0 0 0 6.636-2.72 11.082 11.082 0 0 0 .087-.088 9.28 9.28 0 0 0 2.782-6.719 11.281 11.281 0 0 0 0-.062 9.251 9.251 0 0 0-2.695-6.685 11.076 11.076 0 0 0-.087-.088c-1.854-1.867-4.095-2.801-6.723-2.801Zm44.937-2.95v25.112h-3.226V35.33h3.226Zm-63.909 0v25.112h-3.225V35.33h3.225Zm62.042 35.176a1.523 1.523 0 0 0-1.101-.685 2.118 2.118 0 0 0-.288-.02 2.03 2.03 0 0 0-.557.077 1.568 1.568 0 0 0-.422.187 1.488 1.488 0 0 0-.07.047 1.174 1.174 0 0 0-.35.409 1.117 1.117 0 0 0-.113.347 1.504 1.504 0 0 0-.018.24c0 .327.091.581.273.76a1.999 1.999 0 0 0 .437.327 2.509 2.509 0 0 0 .242.118 7.073 7.073 0 0 0 .537.203 8.494 8.494 0 0 0 .35.109 4.12 4.12 0 0 1 .732.284 3.755 3.755 0 0 1 .155.083 2.115 2.115 0 0 1 .68.608c.15.207.238.478.264.81a2.804 2.804 0 0 1 .009.22c0 .328-.07.622-.207.884a2.044 2.044 0 0 1-.548.659 2.573 2.573 0 0 1-.76.408 2.61 2.61 0 0 1-.847.143 3.183 3.183 0 0 1-1.251-.25 2.32 2.32 0 0 1-.868-.643 2.849 2.849 0 0 1-.141-.18l.669-.479c.155.265.37.478.646.638.277.16.603.24.98.24a1.748 1.748 0 0 0 .274-.022 1.833 1.833 0 0 0 .272-.065 1.563 1.563 0 0 0 .49-.256c.145-.11.265-.249.36-.413.093-.163.14-.35.14-.561a1.498 1.498 0 0 0-.024-.276 1.008 1.008 0 0 0-.132-.352 1.347 1.347 0 0 0-.416-.418 2.433 2.433 0 0 0-.39-.206 3.02 3.02 0 0 0-.198-.075 47.482 47.482 0 0 0-.678-.225 7.27 7.27 0 0 1-.68-.255 2.335 2.335 0 0 1-.588-.362 1.595 1.595 0 0 1-.372-.466 1.886 1.886 0 0 1-.044-.086 1.499 1.499 0 0 1-.108-.323 2.39 2.39 0 0 1-.05-.509 2.317 2.317 0 0 1 .044-.46 1.74 1.74 0 0 1 .154-.449 1.89 1.89 0 0 1 .528-.643c.219-.17.467-.297.744-.378.278-.082.561-.123.852-.123a3.304 3.304 0 0 1 .649.062 2.747 2.747 0 0 1 .456.132 2.108 2.108 0 0 1 .55.324 2.866 2.866 0 0 1 .372.361l-.638.5Zm-19.98 6.994a2.133 2.133 0 0 0 .693.6 2.485 2.485 0 0 0 .073.038 2.221 2.221 0 0 0 .871.234 2.674 2.674 0 0 0 .178.006c.338 0 .626-.05.862-.148a1.666 1.666 0 0 0 .334-.185 1.367 1.367 0 0 0 .239-.219 1.544 1.544 0 0 0 .305-.565 1.783 1.783 0 0 0 .01-.032c.063-.228.095-.471.095-.73v-.858h-.02a2.106 2.106 0 0 1-.336.397 1.665 1.665 0 0 1-.455.297 2.423 2.423 0 0 1-.983.205 2.571 2.571 0 0 1-.854-.14 2.426 2.426 0 0 1-.114-.044 2.442 2.442 0 0 1-.785-.506c-.224-.214-.4-.47-.527-.77a2.418 2.418 0 0 1-.193-.921 2.772 2.772 0 0 1 0-.049 2.628 2.628 0 0 1 .102-.741 2.405 2.405 0 0 1 .08-.229 2.488 2.488 0 0 1 .502-.786 2.274 2.274 0 0 1 .76-.526c.294-.125.617-.189.969-.189a2.487 2.487 0 0 1 .29.018 2.897 2.897 0 0 1 .16.023c.16.028.317.075.477.143a2.098 2.098 0 0 1 .31.167 2.503 2.503 0 0 1 .16.114c.157.119.302.27.437.454h.02v-.796h.669V76.5a3.572 3.572 0 0 1-.037.498 4.52 4.52 0 0 1-.059.329 2.053 2.053 0 0 1-.375.807 1.902 1.902 0 0 1-.408.393 2.557 2.557 0 0 1-.368.22c-.331.163-.763.244-1.297.244-.473 0-.896-.078-1.267-.235a2.834 2.834 0 0 1-.81-.522 3.408 3.408 0 0 1-.204-.202l.497-.531Zm33.846-.96a5.08 5.08 0 0 1-.025-.383 11.427 11.427 0 0 1-.006-.383h-.02c-.074.13-.169.25-.283.357-.116.11-.244.203-.385.28a2.135 2.135 0 0 1-.452.185 1.788 1.788 0 0 1-.412.066 1.615 1.615 0 0 1-.059 0 2.727 2.727 0 0 1-.5-.042c-.361-.067-.644-.215-.848-.442-.29-.323-.436-.785-.436-1.384v-3.032h.67v2.644c0 .243.016.46.05.65a2.65 2.65 0 0 0 .01.055 1.584 1.584 0 0 0 .073.257 1.173 1.173 0 0 0 .135.258.904.904 0 0 0 .376.308 1.081 1.081 0 0 0 .019.008c.134.059.297.093.487.104a2.393 2.393 0 0 0 .137.004.3.3 0 0 0 .025-.002c.042-.003.118-.015.23-.034a10.006 10.006 0 0 0 .029-.005.982.982 0 0 0 .22-.068c.064-.028.13-.064.198-.107a1.801 1.801 0 0 0 .073-.05 1.296 1.296 0 0 0 .23-.212 1.87 1.87 0 0 0 .176-.245 2.388 2.388 0 0 0 .055-.094c.135-.245.202-.586.202-1.021v-2.45h.67v3.726a5.392 5.392 0 0 0 0 .104c.002.102.007.221.014.357a24.963 24.963 0 0 0 .001.03 22.718 22.718 0 0 0 .016.288 16.802 16.802 0 0 0 .02.273h-.69Zm14.683-4.395a5.552 5.552 0 0 0-.026-.383h-.69a16.565 16.565 0 0 1 .02.273 23.325 23.325 0 0 1 .016.288 15.304 15.304 0 0 1 .001.03c.01.184.014.338.014.46v3.727h.67v-2.45a3.46 3.46 0 0 1 .017-.359c.013-.126.034-.242.062-.347a1.4 1.4 0 0 1 .123-.316 2.356 2.356 0 0 1 .055-.094c.121-.198.257-.35.407-.457a1.867 1.867 0 0 1 .068-.046c.067-.044.134-.08.199-.109a.974.974 0 0 1 .224-.07 16.453 16.453 0 0 1 .03-.004c.137-.024.222-.036.254-.036.231 0 .428.031.591.093a.84.84 0 0 1 .422.33c.183.283.274.69.274 1.221v2.644h.669v-3.033a3.325 3.325 0 0 0-.01-.27 2.393 2.393 0 0 0-.1-.524 1.57 1.57 0 0 0-.326-.588c-.204-.228-.487-.376-.848-.443a2.727 2.727 0 0 0-.5-.043 1.68 1.68 0 0 0-.044 0 1.734 1.734 0 0 0-.427.067 2.034 2.034 0 0 0-.452.184 1.898 1.898 0 0 0-.385.28 1.789 1.789 0 0 0-.026.025 1.59 1.59 0 0 0-.258.333h-.02a14.639 14.639 0 0 0-.004-.383Zm-54.063 2.19a2.075 2.075 0 0 0 .173.674 1.793 1.793 0 0 0 .318.487 1.669 1.669 0 0 0 .057.059 1.756 1.756 0 0 0 .537.362 1.607 1.607 0 0 0 .604.132 1.88 1.88 0 0 0 .055 0c.358 0 .667-.082.927-.25a2.222 2.222 0 0 0 .325-.25 1.637 1.637 0 0 0 .268-.326l.518.429a3.102 3.102 0 0 1-.39.414 2.272 2.272 0 0 1-.548.362 2.615 2.615 0 0 1-1.1.235 2.58 2.58 0 0 1-.733-.102 2.348 2.348 0 0 1-.245-.087c-.301-.127-.56-.301-.776-.526a2.5 2.5 0 0 1-.497-.76 2.822 2.822 0 0 1-.015-.037 2.63 2.63 0 0 1-.187-1c0-.361.06-.695.182-1.001a2.437 2.437 0 0 1 .467-.753 2.281 2.281 0 0 1 .04-.043c.217-.224.47-.4.76-.526a2.334 2.334 0 0 1 .864-.187 2.67 2.67 0 0 1 .08-.002 2.554 2.554 0 0 1 .538.055 2.082 2.082 0 0 1 .424.14 2.224 2.224 0 0 1 .536.34 2.017 2.017 0 0 1 .179.175c.192.215.339.466.44.755a2.755 2.755 0 0 1 .152.863 3.1 3.1 0 0 1 .001.061v.307h-3.954Zm-4.56 1.531h3.344v.674h-4.075v-7.229h.73v6.555Zm18.964-2.256v-.123c0-.65-.252-1.043-.758-1.18a1.755 1.755 0 0 0-.458-.055c-.554 0-1.038.187-1.45.561l-.405-.48a2.103 2.103 0 0 1 .884-.536 3.64 3.64 0 0 1 1.123-.158 2.179 2.179 0 0 1 .664.102 1.525 1.525 0 0 1 .446.226 1.455 1.455 0 0 1 .107.086 1.492 1.492 0 0 1 .308.392 1.752 1.752 0 0 1 .066.133 1.54 1.54 0 0 1 .109.36c.022.122.033.255.033.397v2.133a6.648 6.648 0 0 0 .015.428 8.54 8.54 0 0 0 .01.149c.017.2.036.365.057.495h-.65a3.895 3.895 0 0 1-.045-.377 5.545 5.545 0 0 1-.015-.4h-.02c-.197.322-.428.55-.695.69a1.745 1.745 0 0 1-.46.16 2.493 2.493 0 0 1-.44.049 3.091 3.091 0 0 1-.078 0c-.21 0-.412-.03-.608-.086a1.555 1.555 0 0 1-.479-.233 1.53 1.53 0 0 1-.043-.032 1.361 1.361 0 0 1-.365-.44 1.17 1.17 0 0 1-.12-.37 1.55 1.55 0 0 1-.017-.237c0-.312.064-.57.193-.774a1.026 1.026 0 0 1 .107-.14 1.8 1.8 0 0 1 .652-.458 2.174 2.174 0 0 1 .097-.038 3.701 3.701 0 0 1 .836-.191 4.162 4.162 0 0 1 .127-.013 14.116 14.116 0 0 1 .49-.03 10.56 10.56 0 0 1 .448-.01h.334Zm29.64-1.236h-1.37v2.818c0 .125.01.233.026.325a.998.998 0 0 0 .026.109.68.68 0 0 0 .103.216.435.435 0 0 0 .039.045.483.483 0 0 0 .217.127.908.908 0 0 0 .167.03 1.198 1.198 0 0 0 .112.006c.115 0 .234-.017.355-.052a1.66 1.66 0 0 0 .254-.092 1.461 1.461 0 0 0 .08-.04l.03.622a1.783 1.783 0 0 1-.426.134 2.586 2.586 0 0 1-.475.04c-.129 0-.262-.016-.401-.05a.926.926 0 0 1-.38-.195.938.938 0 0 1-.183-.205 1.31 1.31 0 0 1-.101-.182 1.358 1.358 0 0 1-.105-.458 2.466 2.466 0 0 1-.006-.185v-3.013h-1.003v-.612h1.003v-1.348h.669v1.348h1.368v.612Zm-26.599 4.166h-.669v-7.719h.67v7.719Zm16.897 0h-.669v-7.719h.67v7.719Zm-2.121-1.699a2.734 2.734 0 0 0 .084-.69 3.006 3.006 0 0 0-.004-.168 2.559 2.559 0 0 0-.184-.833 2.403 2.403 0 0 0-.521-.796 2.393 2.393 0 0 0-.796-.526 2.454 2.454 0 0 0-.375-.118 2.86 2.86 0 0 0-.644-.07 3.023 3.023 0 0 0-.21.007 2.578 2.578 0 0 0-.799.181 2.38 2.38 0 0 0-.795.526c-.223.224-.397.49-.522.796a2.423 2.423 0 0 0-.099.295 2.737 2.737 0 0 0-.088.705 3.04 3.04 0 0 0 .005.184 2.55 2.55 0 0 0 .182.817 2.4 2.4 0 0 0 .522.797 2.308 2.308 0 0 0 .005.006 2.379 2.379 0 0 0 .79.52 2.439 2.439 0 0 0 .328.107 2.768 2.768 0 0 0 .681.082 3.077 3.077 0 0 0 .273-.012 2.552 2.552 0 0 0 .746-.177 2.39 2.39 0 0 0 .796-.526 2.41 2.41 0 0 0 .521-.797 2.438 2.438 0 0 0 .104-.31Zm19.961-.69c0 .361-.062.694-.187 1a2.429 2.429 0 0 1-.522.797 2.392 2.392 0 0 1-.796.526 2.66 2.66 0 0 1-1.019.189 2.765 2.765 0 0 1-.68-.082 2.425 2.425 0 0 1-.328-.107 2.382 2.382 0 0 1-.796-.526 2.429 2.429 0 0 1-.522-.797 2.55 2.55 0 0 1-.182-.817 3.044 3.044 0 0 1-.005-.184 2.739 2.739 0 0 1 .088-.705 2.42 2.42 0 0 1 .099-.295 2.421 2.421 0 0 1 .522-.796 2.384 2.384 0 0 1 .796-.526 2.566 2.566 0 0 1 .79-.18 3.018 3.018 0 0 1 .218-.009 2.865 2.865 0 0 1 .628.067 2.459 2.459 0 0 1 .391.122c.308.127.572.302.796.526a2.421 2.421 0 0 1 .522.796 2.577 2.577 0 0 1 .182.825 3.005 3.005 0 0 1 .005.175Zm-20.607 0a2.2 2.2 0 0 0-.076-.586 1.985 1.985 0 0 0-.05-.16 1.82 1.82 0 0 0-.276-.503 1.72 1.72 0 0 0-.084-.1 1.705 1.705 0 0 0-1.308-.55c-.277 0-.525.049-.745.148a1.669 1.669 0 0 0-.499.34 1.584 1.584 0 0 0-.058.063 1.827 1.827 0 0 0-.322.517 2.058 2.058 0 0 0-.033.086 2.108 2.108 0 0 0-.125.646 2.442 2.442 0 0 0-.002.098c0 .266.042.515.127.746a1.882 1.882 0 0 0 .244.465 1.717 1.717 0 0 0 .11.137 1.615 1.615 0 0 0 .558.404 1.673 1.673 0 0 0 .482.132 2.122 2.122 0 0 0 .263.016 2.007 2.007 0 0 0 .418-.042 1.611 1.611 0 0 0 .327-.106c.22-.098.408-.233.563-.404a1.756 1.756 0 0 0 .339-.548 2.045 2.045 0 0 0 .02-.054 2.111 2.111 0 0 0 .125-.647 2.463 2.463 0 0 0 .002-.099Zm19.877 0a2.16 2.16 0 0 0-.126-.745 1.841 1.841 0 0 0-.27-.495 1.72 1.72 0 0 0-.09-.108 1.697 1.697 0 0 0-.563-.403 1.67 1.67 0 0 0-.481-.132 2.129 2.129 0 0 0-.264-.016 2.01 2.01 0 0 0-.417.042 1.61 1.61 0 0 0-.328.106 1.668 1.668 0 0 0-.513.356 1.625 1.625 0 0 0-.044.047 1.827 1.827 0 0 0-.322.517 2.055 2.055 0 0 0-.033.086 2.128 2.128 0 0 0-.124.646 2.45 2.45 0 0 0-.002.098 2.231 2.231 0 0 0 .07.57 2.024 2.024 0 0 0 .056.176 1.881 1.881 0 0 0 .244.465 1.72 1.72 0 0 0 .11.137 1.622 1.622 0 0 0 .558.404 1.673 1.673 0 0 0 .482.132 2.123 2.123 0 0 0 .263.016 2.006 2.006 0 0 0 .418-.042 1.612 1.612 0 0 0 .327-.106 1.658 1.658 0 0 0 .563-.404 1.765 1.765 0 0 0 .335-.537 2.075 2.075 0 0 0 .025-.065 2.13 2.13 0 0 0 .124-.644 2.464 2.464 0 0 0 .002-.102Zm-45.795-.061a1.837 1.837 0 0 0 .136.71 1.88 1.88 0 0 0 .375.582 1.819 1.819 0 0 0 .558.397 1.601 1.601 0 0 0 .648.147 1.916 1.916 0 0 0 .046 0 1.839 1.839 0 0 0 .695-.131 1.842 1.842 0 0 0 .582-.373 1.614 1.614 0 0 0 .39-.577 1.717 1.717 0 0 0 .116-.465c.01-.093.014-.19.012-.29a2.073 2.073 0 0 0-.081-.584 1.9 1.9 0 0 0-.042-.126 1.706 1.706 0 0 0-.354-.582 1.69 1.69 0 0 0-.496-.365 1.956 1.956 0 0 0-.072-.033 1.723 1.723 0 0 0-.51-.135 2.16 2.16 0 0 0-.24-.013 1.668 1.668 0 0 0-.552.09 1.546 1.546 0 0 0-.142.058 1.838 1.838 0 0 0-.558.398 1.885 1.885 0 0 0-.374.582 1.836 1.836 0 0 0-.137.71Zm40.12 2.45h-.67v-4.778h.67v4.778Zm-42.553-2.757a1.878 1.878 0 0 0-.062-.494 1.406 1.406 0 0 0-.344-.614 1.323 1.323 0 0 0-.667-.372 2.017 2.017 0 0 0-.466-.051 1.637 1.637 0 0 0-.002 0c-.216 0-.426.042-.628.127a1.78 1.78 0 0 0-.504.316 1.68 1.68 0 0 0-.029.026 1.71 1.71 0 0 0-.364.49 1.267 1.267 0 0 0-.137.572h3.203Zm10.836.378a6.252 6.252 0 0 0-.199.003 13.02 13.02 0 0 0-.434.023 3.631 3.631 0 0 0-.725.12 3.647 3.647 0 0 0-.006.002 1.738 1.738 0 0 0-.36.143 1.472 1.472 0 0 0-.238.159.666.666 0 0 0-.244.473.953.953 0 0 0-.004.088.958.958 0 0 0 .019.193.704.704 0 0 0 .078.21.797.797 0 0 0 .258.275 1.098 1.098 0 0 0 .36.154 1.775 1.775 0 0 0 .4.046 1.837 1.837 0 0 0 .3-.024c.122-.02.232-.053.333-.1a1.333 1.333 0 0 0 .377-.252 1.222 1.222 0 0 0 .074-.078 1.327 1.327 0 0 0 .266-.481 1.54 1.54 0 0 0 .003-.01 2.02 2.02 0 0 0 .085-.516 2.272 2.272 0 0 0 .001-.081v-.347h-.344Zm31.836-4.056a.493.493 0 0 0 .032-.18.593.593 0 0 0 0-.024.449.449 0 0 0-.152-.329.628.628 0 0 0-.059-.047.467.467 0 0 0-.275-.09.455.455 0 0 0-.198.044.565.565 0 0 0-.137.093.45.45 0 0 0-.119.168.491.491 0 0 0-.033.185.577.577 0 0 0 0 .03.452.452 0 0 0 .152.322.631.631 0 0 0 .054.043.47.47 0 0 0 .281.094.456.456 0 0 0 .198-.045.565.565 0 0 0 .136-.092.455.455 0 0 0 .12-.172Z" fill="rgba(49, 114, 185, 1)" fill-rule="evenodd" data-name="Logo"/></svg>