<svg xmlns="http://www.w3.org/2000/svg" width="18.498" height="19.047" viewBox="49 0 18.498 19.047"><path d="M59.359 8.017a.404.404 0 0 1-.008.013l-.016.025a.242.242 0 0 0-.002.004h.026V6.195h-3.966a13.043 13.043 0 0 1 .009.316c.039 2.215-.009 12.536-.009 12.536h3.966V11.87a7.115 7.115 0 0 1 .003-.182c.004-.18.017-.358.042-.519a1.74 1.74 0 0 1 .087-.34 3.03 3.03 0 0 1 .029-.076c.3-.744.945-1.488 2.005-1.488 1.435 0 2.009 1.18 2.009 2.907v6.875h3.964v-7.37a10.113 10.113 0 0 0-.099-1.451c-.108-.746-.303-1.392-.57-1.941a4.107 4.107 0 0 0-3.896-2.392c-2.106 0-3.047 1.25-3.574 2.124Zm-10.123 11.03H53.2V6.195h-3.964v12.852ZM51.245 0C49.888 0 49 .96 49 2.22a2.274 2.274 0 0 0 .536 1.506 2.08 2.08 0 0 0 1.29.69 2.527 2.527 0 0 0 .366.026h.026a2.417 2.417 0 0 0 1.06-.23 2.143 2.143 0 0 0 1.184-1.992A2.422 2.422 0 0 0 53.07.91C52.696.352 52.066 0 51.245 0Z" fill="rgba(28, 28, 28, 1)" fill-rule="evenodd" data-name="Linkedin"/></svg>