<svg xmlns="http://www.w3.org/2000/svg" width="24.047" height="17.494" viewBox="98 2 24.047 17.494"><path d="M119.793 2h-19.539a2.298 2.298 0 0 0-2.25 2.195 2.475 2.475 0 0 0-.004.154v12.796a2.387 2.387 0 0 0 .8 1.794 2.191 2.191 0 0 0 1.454.555h19.54c1.242 0 2.253-1.054 2.253-2.35V4.35a2.386 2.386 0 0 0-.8-1.794A2.191 2.191 0 0 0 119.793 2Zm0 15.928h-19.539a.766.766 0 0 1-.75-.73.827.827 0 0 1-.001-.053V4.655l10.081 7.578a.73.73 0 0 0 .44.147.73.73 0 0 0 .002 0 .73.73 0 0 0 .437-.147l10.082-7.577v12.489a.796.796 0 0 1-.26.592.731.731 0 0 1-.492.191Zm-.369-14.362-9.4 7.065-9.4-7.065h18.8Z" fill="rgba(28, 28, 28, 1)" fill-rule="evenodd" data-name="Email"/></svg>