<svg xmlns="http://www.w3.org/2000/svg" width="115.002" height="43.992" viewBox="186 35 115.002 43.992"><path d="M244.641 35.331h2.945l10.284 17.924V35.331h3.242v25.113h-2.82L247.866 42.3v18.144h-3.226V35.33zm52.169 19.133l2.415 2.182a17.535 17.535 0 01-3.39 2.476 12.239 12.239 0 01-5.975 1.588c-3.523 0-6.525-1.25-9.007-3.75a12.396 12.396 0 01-3.725-8.99 15.158 15.158 0 010-.083 12.431 12.431 0 013.667-9.013 15 15 0 01.058-.059 12.186 12.186 0 018.832-3.765 14.717 14.717 0 01.175-.001 12.356 12.356 0 016.37 1.814 17.938 17.938 0 012.995 2.25l-2.415 2.214a13.48 13.48 0 00-2.487-1.788 9.169 9.169 0 00-4.463-1.194c-2.609 0-4.84.931-6.694 2.794a9.203 9.203 0 00-2.78 6.625 11.178 11.178 0 00-.001.123 9.226 9.226 0 002.695 6.678 11.03 11.03 0 00.086.088 9.097 9.097 0 006.572 2.792 10.886 10.886 0 00.122 0 9.178 9.178 0 004.49-1.208 13.51 13.51 0 002.46-1.773zM228.984 73.73H186v-1.348h42.984v1.348zm9.76-25.958a12.421 12.421 0 00-3.74-9.004 14.915 14.915 0 00-.117-.117 12.231 12.231 0 00-8.904-3.65 14.722 14.722 0 00-.165 0 12.236 12.236 0 00-8.858 3.767 14.954 14.954 0 00-.058.059 12.422 12.422 0 00-3.682 9.028c0 3.547 1.247 6.576 3.74 9.088a14.94 14.94 0 00.117.117 12.236 12.236 0 008.906 3.65 14.715 14.715 0 00.164-.001 12.237 12.237 0 008.858-3.766 15.015 15.015 0 00.058-.059 12.426 12.426 0 003.682-9.029 15.078 15.078 0 000-.083zM186 60.443V35.332h3.225V57.18h8.914v3.265H186zm39.983-22.161a9.114 9.114 0 00-6.637 2.715 11.059 11.059 0 00-.087.086 9.249 9.249 0 00-2.781 6.65 11.257 11.257 0 000 .123 9.268 9.268 0 002.745 6.737 11.161 11.161 0 00.043.044 9.112 9.112 0 006.594 2.808 10.905 10.905 0 00.123 0 9.103 9.103 0 006.636-2.72 11.082 11.082 0 00.087-.088 9.28 9.28 0 002.782-6.719 11.281 11.281 0 000-.062 9.251 9.251 0 00-2.695-6.685 11.076 11.076 0 00-.087-.088c-1.854-1.867-4.095-2.801-6.723-2.801zm44.937-2.95v25.112h-3.226V35.33h3.226zm-63.909 0v25.112h-3.225V35.33h3.225zm62.042 35.176a1.523 1.523 0 00-1.101-.685 2.118 2.118 0 00-.288-.02 2.03 2.03 0 00-.557.077 1.568 1.568 0 00-.422.187 1.488 1.488 0 00-.07.047 1.174 1.174 0 00-.35.409 1.117 1.117 0 00-.113.347 1.504 1.504 0 00-.018.24c0 .327.091.581.273.76a1.999 1.999 0 00.437.327 2.509 2.509 0 00.242.118 7.073 7.073 0 00.537.203 8.494 8.494 0 00.35.109 4.12 4.12 0 01.732.284 3.755 3.755 0 01.155.083 2.115 2.115 0 01.68.608c.15.207.238.478.264.81a2.804 2.804 0 01.009.22c0 .328-.07.622-.207.884a2.044 2.044 0 01-.548.659 2.573 2.573 0 01-.76.408 2.61 2.61 0 01-.847.143 3.183 3.183 0 01-1.251-.25 2.32 2.32 0 01-.868-.643 2.849 2.849 0 01-.141-.18l.669-.479c.155.265.37.478.646.638.277.16.603.24.98.24a1.748 1.748 0 00.274-.022 1.833 1.833 0 00.272-.065 1.563 1.563 0 00.49-.256c.145-.11.265-.249.36-.413.093-.163.14-.35.14-.561a1.498 1.498 0 00-.024-.276 1.008 1.008 0 00-.132-.352 1.347 1.347 0 00-.416-.418 2.433 2.433 0 00-.39-.206 3.02 3.02 0 00-.198-.075 47.482 47.482 0 00-.678-.225 7.27 7.27 0 01-.68-.255 2.335 2.335 0 01-.588-.362 1.595 1.595 0 01-.372-.466 1.886 1.886 0 01-.044-.086 1.499 1.499 0 01-.108-.323 2.39 2.39 0 01-.05-.509 2.317 2.317 0 01.044-.46 1.74 1.74 0 01.154-.449 1.89 1.89 0 01.528-.643c.219-.17.467-.297.744-.378.278-.082.561-.123.852-.123a3.304 3.304 0 01.649.062 2.747 2.747 0 01.456.132 2.108 2.108 0 01.55.324 2.866 2.866 0 01.372.361l-.638.5zm-19.98 6.994a2.133 2.133 0 00.693.6 2.485 2.485 0 00.073.038 2.221 2.221 0 00.871.234 2.674 2.674 0 00.178.006c.338 0 .626-.05.862-.148a1.666 1.666 0 00.334-.185 1.367 1.367 0 00.239-.219 1.544 1.544 0 00.305-.565 1.783 1.783 0 00.01-.032c.063-.228.095-.471.095-.73v-.858h-.02a2.106 2.106 0 01-.336.397 1.665 1.665 0 01-.455.297 2.423 2.423 0 01-.983.205 2.571 2.571 0 01-.854-.14 2.426 2.426 0 01-.114-.044 2.442 2.442 0 01-.785-.506 2.28 2.28 0 01-.527-.77 2.418 2.418 0 01-.193-.921 2.772 2.772 0 010-.049 2.628 2.628 0 01.102-.741 2.405 2.405 0 01.08-.229 2.488 2.488 0 01.502-.786 2.274 2.274 0 01.76-.526c.294-.125.617-.189.969-.189a2.487 2.487 0 01.29.018 2.897 2.897 0 01.16.023c.16.028.317.075.477.143a2.098 2.098 0 01.31.167 2.503 2.503 0 01.16.114c.157.119.302.27.437.454h.02v-.796h.669V76.5a3.572 3.572 0 01-.037.498 4.52 4.52 0 01-.059.329 2.053 2.053 0 01-.375.807 1.902 1.902 0 01-.408.393 2.557 2.557 0 01-.368.22c-.331.163-.763.244-1.297.244-.473 0-.896-.078-1.267-.235a2.834 2.834 0 01-.81-.522 3.408 3.408 0 01-.204-.202l.497-.531zm33.846-.96a5.08 5.08 0 01-.025-.383 11.427 11.427 0 01-.006-.383h-.02c-.074.13-.169.25-.283.357-.116.11-.244.203-.385.28a2.135 2.135 0 01-.452.185 1.788 1.788 0 01-.412.066 1.615 1.615 0 01-.059 0 2.727 2.727 0 01-.5-.042c-.361-.067-.644-.215-.848-.442-.29-.323-.436-.785-.436-1.384v-3.032h.67v2.644c0 .243.016.46.05.65a2.65 2.65 0 00.01.055 1.584 1.584 0 00.073.257 1.173 1.173 0 00.135.258.904.904 0 00.376.308 1.081 1.081 0 00.019.008c.134.059.297.093.487.104a2.393 2.393 0 00.137.004.3.3 0 00.025-.002c.042-.003.118-.015.23-.034a10.006 10.006 0 00.029-.005.982.982 0 00.22-.068c.064-.028.13-.064.198-.107a1.801 1.801 0 00.073-.05 1.296 1.296 0 00.23-.212 1.87 1.87 0 00.176-.245 2.388 2.388 0 00.055-.094c.135-.245.202-.586.202-1.021v-2.45h.67v3.726a5.392 5.392 0 000 .104c.002.102.007.221.014.357a24.963 24.963 0 00.001.03 22.718 22.718 0 00.016.288 16.802 16.802 0 00.02.273h-.69zm14.683-4.395a5.552 5.552 0 00-.026-.383h-.69a16.565 16.565 0 01.02.273 23.325 23.325 0 01.016.288 15.304 15.304 0 01.001.03c.01.184.014.338.014.46v3.727h.67v-2.45a3.46 3.46 0 01.017-.359c.013-.126.034-.242.062-.347a1.4 1.4 0 01.123-.316 2.356 2.356 0 01.055-.094 1.53 1.53 0 01.407-.457 1.867 1.867 0 01.068-.046c.067-.044.134-.08.199-.109a.974.974 0 01.224-.07 16.453 16.453 0 01.03-.004c.137-.024.222-.036.254-.036.231 0 .428.031.591.093a.84.84 0 01.422.33c.183.283.274.69.274 1.221v2.644h.669v-3.033a3.325 3.325 0 00-.01-.27 2.393 2.393 0 00-.1-.524 1.57 1.57 0 00-.326-.588c-.204-.228-.487-.376-.848-.443a2.727 2.727 0 00-.5-.043 1.68 1.68 0 00-.044 0 1.734 1.734 0 00-.427.067 2.034 2.034 0 00-.452.184 1.898 1.898 0 00-.385.28 1.789 1.789 0 00-.026.025 1.59 1.59 0 00-.258.333h-.02a14.639 14.639 0 00-.004-.383zm-54.063 2.19a2.075 2.075 0 00.173.674 1.793 1.793 0 00.318.487 1.669 1.669 0 00.057.059 1.756 1.756 0 00.537.362 1.607 1.607 0 00.604.132 1.88 1.88 0 00.055 0c.358 0 .667-.082.927-.25a2.222 2.222 0 00.325-.25 1.637 1.637 0 00.268-.326l.518.429a3.102 3.102 0 01-.39.414 2.272 2.272 0 01-.548.362 2.615 2.615 0 01-1.1.235 2.58 2.58 0 01-.733-.102 2.348 2.348 0 01-.245-.087 2.298 2.298 0 01-.776-.526 2.5 2.5 0 01-.497-.76 2.822 2.822 0 01-.015-.037 2.63 2.63 0 01-.187-1c0-.361.06-.695.182-1.001a2.437 2.437 0 01.467-.753 2.281 2.281 0 01.04-.043c.217-.224.47-.4.76-.526a2.334 2.334 0 01.864-.187 2.67 2.67 0 01.08-.002 2.554 2.554 0 01.538.055 2.082 2.082 0 01.424.14 2.224 2.224 0 01.536.34 2.017 2.017 0 01.179.175c.192.215.339.466.44.755a2.755 2.755 0 01.152.863 3.1 3.1 0 01.001.061v.307h-3.954zm-4.56 1.531h3.344v.674h-4.075v-7.229h.73v6.555zm18.964-2.256v-.123c0-.65-.252-1.043-.758-1.18a1.755 1.755 0 00-.458-.055 2.09 2.09 0 00-1.45.561l-.405-.48a2.103 2.103 0 01.884-.536 3.64 3.64 0 011.123-.158 2.179 2.179 0 01.664.102 1.525 1.525 0 01.446.226 1.455 1.455 0 01.107.086 1.492 1.492 0 01.308.392 1.752 1.752 0 01.066.133 1.54 1.54 0 01.109.36c.022.122.033.255.033.397v2.133a6.648 6.648 0 00.015.428 8.54 8.54 0 00.01.149c.017.2.036.365.057.495h-.65a3.895 3.895 0 01-.045-.377 5.545 5.545 0 01-.015-.4h-.02c-.197.322-.428.55-.695.69a1.745 1.745 0 01-.46.16 2.493 2.493 0 01-.44.049 3.091 3.091 0 01-.078 0 2.2 2.2 0 01-.608-.086 1.555 1.555 0 01-.479-.233 1.53 1.53 0 01-.043-.032 1.361 1.361 0 01-.365-.44 1.17 1.17 0 01-.12-.37 1.55 1.55 0 01-.017-.237c0-.312.064-.57.193-.774a1.026 1.026 0 01.107-.14 1.8 1.8 0 01.652-.458 2.174 2.174 0 01.097-.038 3.701 3.701 0 01.836-.191 4.162 4.162 0 01.127-.013 14.116 14.116 0 01.49-.03 10.56 10.56 0 01.448-.01h.334zm29.64-1.236h-1.37v2.818c0 .125.01.233.026.325a.998.998 0 00.026.109.68.68 0 00.103.216.435.435 0 00.039.045.483.483 0 00.217.127.908.908 0 00.167.03 1.198 1.198 0 00.112.006c.115 0 .234-.017.355-.052a1.66 1.66 0 00.254-.092 1.461 1.461 0 00.08-.04l.03.622a1.783 1.783 0 01-.426.134 2.586 2.586 0 01-.475.04 1.68 1.68 0 01-.401-.05.926.926 0 01-.38-.195.938.938 0 01-.183-.205 1.31 1.31 0 01-.101-.182 1.358 1.358 0 01-.105-.458 2.466 2.466 0 01-.006-.185v-3.013h-1.003v-.612h1.003v-1.348h.669v1.348h1.368v.612zm-26.599 4.166h-.669v-7.719h.67v7.719zm16.897 0h-.669v-7.719h.67v7.719zm-2.121-1.699a2.734 2.734 0 00.084-.69 3.006 3.006 0 00-.004-.168 2.559 2.559 0 00-.184-.833 2.403 2.403 0 00-.521-.796 2.393 2.393 0 00-.796-.526 2.454 2.454 0 00-.375-.118 2.86 2.86 0 00-.644-.07 3.023 3.023 0 00-.21.007 2.578 2.578 0 00-.799.181 2.38 2.38 0 00-.795.526c-.223.224-.397.49-.522.796a2.423 2.423 0 00-.099.295 2.737 2.737 0 00-.088.705 3.04 3.04 0 00.005.184 2.55 2.55 0 00.182.817 2.4 2.4 0 00.522.797 2.308 2.308 0 00.005.006 2.379 2.379 0 00.79.52 2.439 2.439 0 00.328.107 2.768 2.768 0 00.681.082 3.077 3.077 0 00.273-.012 2.552 2.552 0 00.746-.177 2.39 2.39 0 00.796-.526 2.41 2.41 0 00.521-.797 2.438 2.438 0 00.104-.31zm19.961-.69c0 .361-.062.694-.187 1a2.429 2.429 0 01-.522.797 2.392 2.392 0 01-.796.526 2.66 2.66 0 01-1.019.189 2.765 2.765 0 01-.68-.082 2.425 2.425 0 01-.328-.107 2.382 2.382 0 01-.796-.526 2.429 2.429 0 01-.522-.797 2.55 2.55 0 01-.182-.817 3.044 3.044 0 01-.005-.184 2.739 2.739 0 01.088-.705 2.42 2.42 0 01.099-.295 2.421 2.421 0 01.522-.796 2.384 2.384 0 01.796-.526 2.566 2.566 0 01.79-.18 3.018 3.018 0 01.218-.009 2.865 2.865 0 01.628.067 2.459 2.459 0 01.391.122c.308.127.572.302.796.526a2.421 2.421 0 01.522.796 2.577 2.577 0 01.182.825 3.005 3.005 0 01.005.175zm-20.607 0a2.2 2.2 0 00-.076-.586 1.985 1.985 0 00-.05-.16 1.82 1.82 0 00-.276-.503 1.72 1.72 0 00-.084-.1 1.705 1.705 0 00-1.308-.55c-.277 0-.525.049-.745.148a1.669 1.669 0 00-.499.34 1.584 1.584 0 00-.058.063 1.827 1.827 0 00-.322.517 2.058 2.058 0 00-.033.086 2.108 2.108 0 00-.125.646 2.442 2.442 0 00-.002.098c0 .266.042.515.127.746a1.882 1.882 0 00.244.465 1.717 1.717 0 00.11.137 1.615 1.615 0 00.558.404 1.673 1.673 0 00.482.132 2.122 2.122 0 00.263.016 2.007 2.007 0 00.418-.042 1.611 1.611 0 00.327-.106c.22-.098.408-.233.563-.404a1.756 1.756 0 00.339-.548 2.045 2.045 0 00.02-.054 2.111 2.111 0 00.125-.647 2.463 2.463 0 00.002-.099zm19.877 0a2.16 2.16 0 00-.126-.745 1.841 1.841 0 00-.27-.495 1.72 1.72 0 00-.09-.108 1.697 1.697 0 00-.563-.403 1.67 1.67 0 00-.481-.132 2.129 2.129 0 00-.264-.016 2.01 2.01 0 00-.417.042 1.61 1.61 0 00-.328.106 1.668 1.668 0 00-.513.356 1.625 1.625 0 00-.044.047 1.827 1.827 0 00-.322.517 2.055 2.055 0 00-.033.086 2.128 2.128 0 00-.124.646 2.45 2.45 0 00-.002.098 2.231 2.231 0 00.07.57 2.024 2.024 0 00.056.176 1.881 1.881 0 00.244.465 1.72 1.72 0 00.11.137 1.622 1.622 0 00.558.404 1.673 1.673 0 00.482.132 2.123 2.123 0 00.263.016 2.006 2.006 0 00.418-.042 1.612 1.612 0 00.327-.106 1.658 1.658 0 00.563-.404 1.765 1.765 0 00.335-.537 2.075 2.075 0 00.025-.065 2.13 2.13 0 00.124-.644 2.464 2.464 0 00.002-.102zm-45.795-.061a1.837 1.837 0 00.136.71 1.88 1.88 0 00.375.582 1.819 1.819 0 00.558.397 1.601 1.601 0 00.648.147 1.916 1.916 0 00.046 0 1.839 1.839 0 00.695-.131 1.842 1.842 0 00.582-.373 1.614 1.614 0 00.39-.577 1.717 1.717 0 00.116-.465c.01-.093.014-.19.012-.29a2.073 2.073 0 00-.081-.584 1.9 1.9 0 00-.042-.126 1.706 1.706 0 00-.354-.582 1.69 1.69 0 00-.496-.365 1.956 1.956 0 00-.072-.033 1.723 1.723 0 00-.51-.135 2.16 2.16 0 00-.24-.013 1.668 1.668 0 00-.552.09 1.546 1.546 0 00-.142.058 1.838 1.838 0 00-.558.398 1.885 1.885 0 00-.374.582 1.836 1.836 0 00-.137.71zm40.12 2.45h-.67v-4.778h.67v4.778zm-42.553-2.757a1.878 1.878 0 00-.062-.494 1.406 1.406 0 00-.344-.614 1.323 1.323 0 00-.667-.372 2.017 2.017 0 00-.466-.051 1.637 1.637 0 00-.002 0c-.216 0-.426.042-.628.127a1.78 1.78 0 00-.504.316 1.68 1.68 0 00-.029.026 1.71 1.71 0 00-.364.49 1.267 1.267 0 00-.137.572h3.203zm10.836.378a6.252 6.252 0 00-.199.003 13.02 13.02 0 00-.434.023 3.631 3.631 0 00-.725.12 3.647 3.647 0 00-.006.002 1.738 1.738 0 00-.36.143 1.472 1.472 0 00-.238.159.666.666 0 00-.244.473.953.953 0 00-.004.088.958.958 0 00.019.193.704.704 0 00.078.21.797.797 0 00.258.275 1.098 1.098 0 00.36.154 1.775 1.775 0 00.4.046 1.837 1.837 0 00.3-.024c.122-.02.232-.053.333-.1a1.333 1.333 0 00.377-.252 1.222 1.222 0 00.074-.078 1.327 1.327 0 00.266-.481 1.54 1.54 0 00.003-.01 2.02 2.02 0 00.085-.516 2.272 2.272 0 00.001-.081v-.347h-.344zm31.836-4.056a.493.493 0 00.032-.18.593.593 0 000-.024.449.449 0 00-.152-.329.628.628 0 00-.059-.047.467.467 0 00-.275-.09.455.455 0 00-.198.044.565.565 0 00-.137.093.45.45 0 00-.119.168.491.491 0 00-.033.185.577.577 0 000 .03.452.452 0 00.152.322.631.631 0 00.054.043.47.47 0 00.281.094.456.456 0 00.198-.045.565.565 0 00.136-.092.455.455 0 00.12-.172z" fill="rgba(49, 114, 185, 1)" fill-rule="evenodd" data-name="Logo"/></svg>