<svg xmlns="http://www.w3.org/2000/svg" width="14.001" height="17" viewBox="0.001 0 14.001 17"><path d="M13.972 3.706a155.394 155.394 0 00.012.671 2003.644 2003.644 0 010 .053c.07 3.653.137 8.44-4.21 11.284a11.995 11.995 0 01-2.582 1.253.568.568 0 01-.19.033.567.567 0 01-.192-.033C-.14 14.509-.062 8.697.018 4.431a1966.662 1966.662 0 01.001-.053 294.327 294.327 0 00.006-.34 55.486 55.486 0 00.01-.973.59.59 0 01.584-.595 11.527 11.527 0 00.963-.039A7.687 7.687 0 006.595.169a.575.575 0 01.543-.152.577.577 0 01.27.152C8.99 1.739 10.89 2.47 13.384 2.47a.59.59 0 01.583.595 45.086 45.086 0 00.005.641zM4.56 14.511a10.414 10.414 0 002.442 1.263 11.695 11.695 0 001.334-.587c4.639-2.413 4.556-6.84 4.483-10.787a150.981 150.981 0 01-.013-.752 12.066 12.066 0 01-.671-.048A8.714 8.714 0 017 1.404a8.518 8.518 0 01-3.08 1.779 10.229 10.229 0 01-2.722.465 131.829 131.829 0 01-.013.752c-.067 3.604-.142 7.606 3.374 10.111zm4.45-8.078L6.196 9.305 4.993 8.079a.578.578 0 00-.266-.155.574.574 0 00-.514.114.594.594 0 00-.044.041.604.604 0 00-.016.825.6.6 0 00.016.017l1.613 1.646a.576.576 0 00.264.154.577.577 0 00.149.02.574.574 0 00.368-.133.591.591 0 00.044-.041l3.227-3.292a.604.604 0 00.016-.826.6.6 0 00-.016-.016.575.575 0 00-.824 0z" fill="rgba(120, 120, 120, 1)" fill-rule="evenodd" data-name="Shield-icon"/></svg>