<svg xmlns="http://www.w3.org/2000/svg" width="63.999" height="64" viewBox="102 61 63.999 64"><path d="M165.547 73.023a3.974 3.974 0 00-2.342-1.97l-22.14-7.013a.21.21 0 00-.017-.004.468.468 0 01-.009-.002l-.076-.242a4.006 4.006 0 00-4.472-2.737 4.017 4.017 0 00-.549.132l-31.148 9.865a3.973 3.973 0 00-2.343 1.971 3.976 3.976 0 00-.445 2.047 4.025 4.025 0 00.183 1.004l14.616 46.133A4.007 4.007 0 00120.62 125a3.967 3.967 0 00.646-.053 4.036 4.036 0 00.558-.134L134 120.957l12.174 3.856a4.042 4.042 0 00.542.13 3.968 3.968 0 00.663.057 4.007 4.007 0 003.816-2.792l2.367-7.47.008-.034a3.968 3.968 0 001.747-1.728 3.979 3.979 0 00.451-1.838c0-.406-.062-.814-.188-1.212l-.247-.78 10.478-33.072a4.023 4.023 0 00.183-1.004 3.977 3.977 0 00-.446-2.047zm-13.379 39.382a1.322 1.322 0 00.781-.657 1.327 1.327 0 00.15-.613c0-.135-.02-.271-.062-.404L138.42 64.598a1.334 1.334 0 00-1.674-.869L105.6 73.595a1.324 1.324 0 00-.78.657 1.327 1.327 0 00-.151.612c0 .024 0 .047.002.07a1.341 1.341 0 00.06.335l14.617 46.133a1.336 1.336 0 001.272.931c.133 0 .268-.02.401-.062l12.54-3.972a1.556 1.556 0 01.086-.027l18.522-5.867zm-18.86-43.484a2.678 2.678 0 00-.363.088l-21.196 6.714a2.65 2.65 0 00-1.562 1.313 2.65 2.65 0 00-.297 1.364 2.682 2.682 0 00.122.67l9.88 31.187a2.671 2.671 0 002.543 1.861 2.657 2.657 0 00.433-.035 2.66 2.66 0 00.372-.09l21.196-6.713a2.649 2.649 0 001.561-1.314 2.653 2.653 0 00.301-1.225c0-.27-.041-.543-.125-.808l-9.88-31.187a2.67 2.67 0 00-2.984-1.825zm-10.874 40.53l-9.88-31.186 11.425-3.619 9.771-3.094 9.88 31.186-21.196 6.714zm40.834-34.183l-9.335 29.464-2.038-6.434 6.092-19.228a2.683 2.683 0 00.122-.67 2.64 2.64 0 00.004-.138 2.656 2.656 0 00-.301-1.226 2.65 2.65 0 00-1.562-1.313l-12.517-3.965a1.38 1.38 0 00-.198-.047 1.381 1.381 0 00-.066-.009l-1.445-4.561 20.376 6.454c.34.107.617.34.78.656a1.328 1.328 0 01.151.613c0 .135-.02.271-.063.404zm-18.824-.488l11.001 3.484-4.949 15.62-6.052-19.104zm4.208 46.622a1.336 1.336 0 01-1.674.869l-8.563-2.713 12.028-3.81-1.791 5.654z" fill="rgba(49, 114, 185, 1)" fill-rule="evenodd" data-name="icon"/></svg>