<svg xmlns="http://www.w3.org/2000/svg" width="18.498" height="15.239" viewBox="1.006 4.809 18.498 15.239"><path d="M19.504 6.613a7.5 7.5 0 01-2.18.605 3.848 3.848 0 001.67-2.128 7.53 7.53 0 01-2.41.934 3.766 3.766 0 00-2.77-1.215c-2.097 0-3.796 1.722-3.796 3.847 0 .301.034.595.098.877-3.154-.161-5.95-1.692-7.822-4.02a3.868 3.868 0 00-.514 1.934 3.86 3.86 0 001.689 3.202 3.736 3.736 0 01-1.72-.481v.049c0 1.863 1.308 3.418 3.045 3.772a3.759 3.759 0 01-1.714.066c.483 1.528 1.884 2.64 3.545 2.671a7.551 7.551 0 01-5.619 1.593 10.636 10.636 0 005.818 1.73c6.98 0 10.798-5.863 10.798-10.947 0-.167-.004-.333-.012-.498a7.767 7.767 0 001.894-1.991z" fill="rgba(28, 28, 28, 1)" fill-rule="evenodd" data-name="Twitter"/></svg>