<svg xmlns="http://www.w3.org/2000/svg" width="63.999" height="64" viewBox="102 61 63.999 64"><path d="M165.547 73.023a3.974 3.974 0 0 0-2.342-1.97l-22.14-7.013a.21.21 0 0 0-.017-.004.468.468 0 0 1-.009-.002l-.076-.242a4.006 4.006 0 0 0-4.472-2.737 4.017 4.017 0 0 0-.549.132l-31.148 9.865a3.973 3.973 0 0 0-2.343 1.971 3.976 3.976 0 0 0-.445 2.047 4.025 4.025 0 0 0 .183 1.004l14.616 46.133A4.007 4.007 0 0 0 120.62 125a3.967 3.967 0 0 0 .646-.053 4.036 4.036 0 0 0 .558-.134L134 120.957l12.174 3.856a4.042 4.042 0 0 0 .542.13 3.968 3.968 0 0 0 .663.057 4.007 4.007 0 0 0 3.816-2.792l2.367-7.47.008-.034a3.968 3.968 0 0 0 1.747-1.728 3.979 3.979 0 0 0 .451-1.838c0-.406-.062-.814-.188-1.212l-.247-.78 10.478-33.072a4.023 4.023 0 0 0 .183-1.004 3.977 3.977 0 0 0-.446-2.047Zm-13.379 39.382a1.322 1.322 0 0 0 .781-.657 1.327 1.327 0 0 0 .15-.613c0-.135-.02-.271-.062-.404L138.42 64.598a1.334 1.334 0 0 0-1.674-.869L105.6 73.595a1.324 1.324 0 0 0-.78.657 1.327 1.327 0 0 0-.151.612c0 .024 0 .047.002.07a1.341 1.341 0 0 0 .06.335l14.617 46.133a1.336 1.336 0 0 0 1.272.931c.133 0 .268-.02.401-.062l12.54-3.972a1.556 1.556 0 0 1 .086-.027l18.522-5.867Zm-18.86-43.484a2.678 2.678 0 0 0-.363.088l-21.196 6.714a2.65 2.65 0 0 0-1.562 1.313 2.65 2.65 0 0 0-.297 1.364 2.682 2.682 0 0 0 .122.67l9.88 31.187a2.671 2.671 0 0 0 2.543 1.861 2.657 2.657 0 0 0 .433-.035 2.66 2.66 0 0 0 .372-.09l21.196-6.713a2.649 2.649 0 0 0 1.561-1.314 2.653 2.653 0 0 0 .301-1.225c0-.27-.041-.543-.125-.808l-9.88-31.187a2.67 2.67 0 0 0-2.984-1.825Zm-10.874 40.53-9.88-31.186 11.425-3.619 9.771-3.094 9.88 31.186-21.196 6.714Zm40.834-34.183-9.335 29.464-2.038-6.434 6.092-19.228a2.683 2.683 0 0 0 .122-.67 2.64 2.64 0 0 0 .004-.138 2.656 2.656 0 0 0-.301-1.226 2.65 2.65 0 0 0-1.562-1.313l-12.517-3.965a1.38 1.38 0 0 0-.198-.047 1.381 1.381 0 0 0-.066-.009l-1.445-4.561 20.376 6.454c.34.107.617.34.78.656a1.328 1.328 0 0 1 .151.613c0 .135-.02.271-.063.404Zm-18.824-.488 11.001 3.484-4.949 15.62-6.052-19.104Zm4.208 46.622c-.222.701-.973 1.09-1.674.869l-8.563-2.713 12.028-3.81-1.791 5.654Z" fill="rgba(255, 255, 255, 1)" fill-rule="evenodd" data-name="icon"/></svg>