<svg xmlns="http://www.w3.org/2000/svg" width="86" height="63.999" viewBox="91 62 86 63.999"><path d="M164.693 67.937A20.09 20.09 0 0 0 150.382 62a20.089 20.089 0 0 0-14.312 5.937l-1.607 1.61-1.607-1.61A20.093 20.093 0 0 0 118.544 62a20.089 20.089 0 0 0-14.311 5.937 20.167 20.167 0 0 0-5.594 10.7 20.459 20.459 0 0 0-.325 3.635 20.232 20.232 0 0 0 1.133 6.71h-6.315A2.134 2.134 0 0 0 91 91.118a2.134 2.134 0 0 0 2.132 2.135h7.818a2.134 2.134 0 0 0 .537-.069 20.232 20.232 0 0 0 1.857 2.473 20.47 20.47 0 0 0 .889.948l28.722 28.769a2.12 2.12 0 0 0 1.072.58 2.139 2.139 0 0 0 .436.045 2.129 2.129 0 0 0 1.387-.512 2.183 2.183 0 0 0 .122-.113l28.721-28.768a20.154 20.154 0 0 0 3.198-4.146 2.134 2.134 0 0 0 .58.081h6.397A2.134 2.134 0 0 0 177 90.405a2.134 2.134 0 0 0-2.132-2.135h-5.142a20.154 20.154 0 0 0 .896-5.998 20.154 20.154 0 0 0-5.929-14.335Zm-61.86 17.203a15.92 15.92 0 0 0 1.593 4.623h14.811l5.302-11.284c.235-.5.699-.818 1.278-.818a1.608 1.608 0 0 1 .075.002 1.422 1.422 0 0 1 1.27.938l7.89 21.886 6.491-18.32a1.42 1.42 0 0 1 1.279-.945 1.565 1.565 0 0 1 .044 0 1.416 1.416 0 0 1 1.31.833l3.176 6.996h17.5a15.97 15.97 0 0 0 1.497-6.78c0-.96-.085-1.92-.256-2.868a15.92 15.92 0 0 0-4.415-8.446 15.86 15.86 0 0 0-11.297-4.686 15.86 15.86 0 0 0-11.296 4.686l-3.115 3.12a2.166 2.166 0 0 1-.12.112c-.517.444-1.196.6-1.826.468a2.122 2.122 0 0 1-1.069-.58l-3.114-3.12a15.862 15.862 0 0 0-11.297-4.686 15.857 15.857 0 0 0-11.296 4.686 16.158 16.158 0 0 0-.701.749c-3.32 3.776-4.558 8.759-3.714 13.434Zm58.845 8.446-27.215 27.258-27.215-27.258a15.92 15.92 0 0 1-.956-1.045h14.147a1.296 1.296 0 0 0 .282-.028c.339-.075.507-.304.69-.688a5.522 5.522 0 0 0 .015-.032l4.227-8.995 8.076 22.399a1.421 1.421 0 0 0 1.337.94h.003a1.421 1.421 0 0 0 1.335-.948l6.642-18.746 2.097 4.62a1.015 1.015 0 0 0 .365.408c.35.239.848.359 1.228.359h16.458a15.97 15.97 0 0 1-.815 1.007 16.158 16.158 0 0 1-.701.749Z" fill="rgba(49, 114, 185, 1)" fill-rule="evenodd" data-name="icon"/></svg>