<svg xmlns="http://www.w3.org/2000/svg" width="65.001" height="65" viewBox="98 60 65.001 65"><path d="m140.615 90.99 2.862-2.862a6.346 6.346 0 0 0 5.027-1.85l2.726-2.725a6.35 6.35 0 0 0 1.76-3.351 6.387 6.387 0 0 0-1.48-5.38 6.453 6.453 0 0 0-.28-.3l-12.654-12.651A6.345 6.345 0 0 0 134.06 60c-1.706 0-3.31.665-4.515 1.87l-2.726 2.726a6.348 6.348 0 0 0-1.762 3.358c-.07.382-.105.77-.105 1.157a6.442 6.442 0 0 0 .02.508l-17.352 17.35a6.6 6.6 0 0 0-.511-.02 6.345 6.345 0 0 0-4.516 1.87l-2.725 2.726a6.349 6.349 0 0 0-1.764 3.36 6.383 6.383 0 0 0 1.764 5.67l12.653 12.652a6.344 6.344 0 0 0 4.516 1.87 6.345 6.345 0 0 0 4.515-1.87l2.726-2.725a6.344 6.344 0 0 0 1.87-4.515 6.506 6.506 0 0 0-.02-.511l2.863-2.863 20.518 20.517a6.344 6.344 0 0 0 4.516 1.87c1.706 0 3.31-.664 4.516-1.87l2.593-2.593a6.35 6.35 0 0 0 1.761-3.351 6.384 6.384 0 0 0-1.761-5.68L140.615 90.99Zm-14.91 8.254-5.154 5.155.4.4a1.68 1.68 0 0 1 0 2.376l-2.726 2.725a1.675 1.675 0 0 1-1.188.492c-.43 0-.86-.164-1.189-.492l-12.653-12.652a1.672 1.672 0 0 1-.46-.857c-.099-.496.027-1.029.379-1.433a1.704 1.704 0 0 1 .081-.087l2.725-2.725a1.674 1.674 0 0 1 .863-.46 1.689 1.689 0 0 1 .326-.032c.393 0 .786.137 1.101.411a1.706 1.706 0 0 1 .087.081l.4.4 21.85-21.847-.4-.4a1.68 1.68 0 0 1-.081-2.29 1.705 1.705 0 0 1 .08-.086l2.726-2.725a1.676 1.676 0 0 1 1.186-.492 1.114 1.114 0 0 1 .002 0 1.676 1.676 0 0 1 1.102.41 1.705 1.705 0 0 1 .087.082l12.653 12.652a1.68 1.68 0 0 1 0 2.376l-2.725 2.725a1.676 1.676 0 0 1-1.188.493 1.675 1.675 0 0 1-1.102-.412 1.705 1.705 0 0 1-.087-.08l-.4-.4-5.155 5.154-3.46 3.46-4.62 4.618-3.46 3.46Zm32.101 17.966-2.593 2.593a1.671 1.671 0 0 1-.846.457 1.69 1.69 0 0 1-.342.035 1.675 1.675 0 0 1-1.102-.411 1.702 1.702 0 0 1-.086-.081l-20.519-20.516 4.97-4.97 20.518 20.517a1.672 1.672 0 0 1 .46.857 1.68 1.68 0 0 1-.379 1.432 1.705 1.705 0 0 1-.08.087Z" fill="rgba(49, 114, 185, 1)" fill-rule="evenodd" data-name="icon"/></svg>